<?xml version="1.0" encoding="iso-8859-1"?>
<!-- Generator: Adobe Illustrator 16.0.0, SVG Export Plug-In . SVG Version: 6.00 Build 0)  -->
<!DOCTYPE svg PUBLIC "-//W3C//DTD SVG 1.1//EN" "http://www.w3.org/Graphics/SVG/1.1/DTD/svg11.dtd">
<svg version="1.1" id="Capa_1" xmlns="http://www.w3.org/2000/svg" xmlns:xlink="http://www.w3.org/1999/xlink" x="0px" y="0px"
	 width="461.543px" height="461.543px" viewBox="0 0 461.543 461.543" style="enable-background:new 0 0 461.543 461.543;"
	 xml:space="preserve">
<g>
	<g>
		<circle cx="351.199" cy="55.233" r="55.233"/>
		<path d="M52.304,382.414l157.523,1.453c0.095,0,0.172,0,0.258,0c9.802,0,18.934-5.002,24.193-13.281
			c5.317-8.359,5.948-18.857,1.664-27.779l-39.875-83.252l207.391,40.68c1.865,0.363,3.721,0.545,5.557,0.545
			c13.426,0,25.417-9.486,28.095-23.16c3.05-15.539-7.077-30.609-22.616-33.66l-161.606-31.691l54.976-48.902l77.743,33.517
			c2.639,1.138,5.384,1.673,8.1,1.673c7.927,0,15.472-4.628,18.818-12.374c4.485-10.385-0.306-22.434-10.69-26.918l-72.896-31.432
			L276.726,86.33c-3.347-5.843-9.477-9.926-16.687-10.308l-153.096-7.937c-11.265-0.65-20.922,8.09-21.516,19.393
			c-0.583,11.303,8.109,20.933,19.402,21.516l114.377,5.929l-101.075,93.397c-3.318,3.07-4.638,8.96-2.936,13.148l6.608,16.228
			c0.258,0.641,0.717,1.262,1.119,1.883c0.039,0.086,0.048,0.172,0.096,0.26l41.329,86.262L52.82,325.068c-0.086,0-0.172,0-0.268,0
			c-15.711,0-28.516,12.66-28.659,28.41C23.741,369.303,36.449,382.262,52.304,382.414z"/>
		<path d="M279.461,300.932c-6.79,0-12.288,5.498-12.288,12.287v85.137l-50.155,41.424c-3.997,3.299-5.489,8.76-3.739,13.627
			c1.76,4.877,6.378,8.137,11.561,8.137h103.763c5.059,0,9.61-3.107,11.446-7.832c1.836-4.713,0.593-10.088-3.137-13.512
			l-45.164-41.453v-85.527C291.758,306.43,286.241,300.932,279.461,300.932z"/>
	</g>
</g>
<g>
</g>
<g>
</g>
<g>
</g>
<g>
</g>
<g>
</g>
<g>
</g>
<g>
</g>
<g>
</g>
<g>
</g>
<g>
</g>
<g>
</g>
<g>
</g>
<g>
</g>
<g>
</g>
<g>
</g>
</svg>
