<?xml version="1.0" encoding="iso-8859-1"?>
<!-- Generator: Adobe Illustrator 18.1.1, SVG Export Plug-In . SVG Version: 6.00 Build 0)  -->
<svg version="1.1" id="Capa_1" xmlns="http://www.w3.org/2000/svg" xmlns:xlink="http://www.w3.org/1999/xlink" x="0px" y="0px"
	 viewBox="0 0 60.576 60.576" style="enable-background:new 0 0 60.576 60.576;" xml:space="preserve">
<g>
	<g>
		<polygon style="fill:#010002;" points="27.268,57.541 27.268,35.98 24.232,35.98 24.232,60.576 59.643,60.576 59.643,57.541 		"/>
		<path style="fill:#010002;" d="M29.29,32.465c1.687,2.389,3.799,4.471,6.001,6.387c1.553,1.353,3.562,1.039,4.734-0.612
			c2.19-3.093,4.136-6.271,5.42-9.854c1.312-3.668-4.516-5.234-5.815-1.603c-0.678,1.895-1.646,3.658-2.724,5.352
			c-1.48-1.486-2.816-3.102-3.82-4.976c-0.107-0.196-0.227-0.364-0.352-0.52c-0.064-0.463-0.188-0.926-0.385-1.376
			c-1.015-2.332-1.896-4.29-2.748-6.187c-1.27-2.825-2.469-5.491-3.965-9.081c-0.028-0.066-0.062-0.127-0.092-0.191
			c0.838-0.905,1.813-1.654,3.017-2.042c2.698-0.869,5.792-0.393,8.556-0.202c3.903,0.27,4.327-5.785,0.423-6.055
			c-3.557-0.247-7.308-0.619-10.758,0.49c-2.723,0.876-4.814,2.627-6.546,4.753c-0.518,0.049-1.039,0.175-1.546,0.387
			c-2.468,1.028-3.744,3.704-3.095,6.221c-1.713,3.61-8.093,4.005-11.725,4.036c-3.914,0.031-3.917,6.101,0,6.07
			c4.613-0.038,10.502-1.002,14.324-3.879c0.583,1.317,1.145,2.569,1.719,3.849c0.771,1.717,1.572,3.498,2.472,5.56
			c-5.824,2.58-12.039,5.549-17.56,7.826c-3.541,1.461-1.991,7.298,1.602,5.814c7.051-2.908,15.236-6.953,22.286-9.861
			C28.925,32.686,29.115,32.58,29.29,32.465z"/>
		<circle style="fill:#010002;" cx="10.438" cy="5.398" r="5.398"/>
	</g>
</g>
<g>
</g>
<g>
</g>
<g>
</g>
<g>
</g>
<g>
</g>
<g>
</g>
<g>
</g>
<g>
</g>
<g>
</g>
<g>
</g>
<g>
</g>
<g>
</g>
<g>
</g>
<g>
</g>
<g>
</g>
</svg>
